<?xml version="1.0" encoding="UTF-8" standalone="no"?>
<!-- Created with Inkscape (http://www.inkscape.org/) -->

<svg
   version="1.1"
   id="svg2"
   xml:space="preserve"
   width="666.66669"
   height="666.66669"
   viewBox="0 0 666.66669 666.66669"
   sodipodi:docname="5538440_2895261.ps"
   xmlns:inkscape="http://www.inkscape.org/namespaces/inkscape"
   xmlns:sodipodi="http://sodipodi.sourceforge.net/DTD/sodipodi-0.dtd"
   xmlns="http://www.w3.org/2000/svg"
   xmlns:svg="http://www.w3.org/2000/svg"><defs
     id="defs6"><clipPath
       clipPathUnits="userSpaceOnUse"
       id="clipPath26"><path
         d="M 368.359,1695.96 H 681.23 v 213.949 H 368.359 Z"
         id="path24" /></clipPath><clipPath
       clipPathUnits="userSpaceOnUse"
       id="clipPath32"><path
         d="m 368.358,1695.96 h 312.873 v 213.95 H 368.358 Z"
         id="path30" /></clipPath><clipPath
       clipPathUnits="userSpaceOnUse"
       id="clipPath36"><path
         d="M 368.359,1695.96 H 681.23 v 213.949 H 368.359 Z"
         id="path34" /></clipPath><clipPath
       clipPathUnits="userSpaceOnUse"
       id="clipPath102"><path
         d="m 1102.1,2453.92 h 273.289 v 405.727 H 1102.1 Z"
         id="path100" /></clipPath><clipPath
       clipPathUnits="userSpaceOnUse"
       id="clipPath108"><path
         d="m 1102.1,2453.92 h 273.29 v 405.73 H 1102.1 Z"
         id="path106" /></clipPath><clipPath
       clipPathUnits="userSpaceOnUse"
       id="clipPath112"><path
         d="m 1102.1,2453.92 h 273.289 v 405.727 H 1102.1 Z"
         id="path110" /></clipPath><clipPath
       clipPathUnits="userSpaceOnUse"
       id="clipPath346"><path
         d="m 1637.46,2793.44 h 40.5977 v 211.109 H 1637.46 Z"
         id="path344" /></clipPath><clipPath
       clipPathUnits="userSpaceOnUse"
       id="clipPath352"><path
         d="m 1637.46,2793.44 h 40.6 v 211.11 h -40.6 z"
         id="path350" /></clipPath><clipPath
       clipPathUnits="userSpaceOnUse"
       id="clipPath356"><path
         d="m 1637.46,2793.44 h 40.5977 v 211.109 H 1637.46 Z"
         id="path354" /></clipPath><clipPath
       clipPathUnits="userSpaceOnUse"
       id="clipPath376"><path
         d="m 4007.68,2103.01 h 81.4688 v 104.977 H 4007.68 Z"
         id="path374" /></clipPath><clipPath
       clipPathUnits="userSpaceOnUse"
       id="clipPath382"><path
         d="m 4007.68,2103.01 h 81.47 v 104.98 h -81.47 z"
         id="path380" /></clipPath><clipPath
       clipPathUnits="userSpaceOnUse"
       id="clipPath386"><path
         d="m 4007.68,2103.01 h 81.4688 v 104.977 H 4007.68 Z"
         id="path384" /></clipPath><clipPath
       clipPathUnits="userSpaceOnUse"
       id="clipPath406"><path
         d="m 4019.56,1780.89 h 568.633 v 344.18 H 4019.56 Z"
         id="path404" /></clipPath><clipPath
       clipPathUnits="userSpaceOnUse"
       id="clipPath412"><path
         d="m 4019.56,1780.89 h 568.63 v 344.18 h -568.63 z"
         id="path410" /></clipPath><clipPath
       clipPathUnits="userSpaceOnUse"
       id="clipPath416"><path
         d="m 4019.56,1780.89 h 568.633 v 344.18 H 4019.56 Z"
         id="path414" /></clipPath><clipPath
       clipPathUnits="userSpaceOnUse"
       id="clipPath436"><path
         d="M 3321.77,1915.84 H 3533 v 613.809 h -211.23 z"
         id="path434" /></clipPath><clipPath
       clipPathUnits="userSpaceOnUse"
       id="clipPath442"><path
         d="M 3321.77,1915.84 H 3533 v 613.81 h -211.23 z"
         id="path440" /></clipPath><clipPath
       clipPathUnits="userSpaceOnUse"
       id="clipPath446"><path
         d="M 3321.77,1915.84 H 3533 v 613.809 h -211.23 z"
         id="path444" /></clipPath><clipPath
       clipPathUnits="userSpaceOnUse"
       id="clipPath464"><path
         d="m 3432.18,1888.92 h 722.941 v 934.609 H 3432.18 Z"
         id="path462" /></clipPath><clipPath
       clipPathUnits="userSpaceOnUse"
       id="clipPath470"><path
         d="m 3432.18,1888.92 h 722.94 v 934.61 h -722.94 z"
         id="path468" /></clipPath><clipPath
       clipPathUnits="userSpaceOnUse"
       id="clipPath474"><path
         d="m 3432.18,1888.92 h 722.941 v 934.609 H 3432.18 Z"
         id="path472" /></clipPath><clipPath
       clipPathUnits="userSpaceOnUse"
       id="clipPath492"><path
         d="m 3516.88,1962.21 h 564.832 v 786.777 H 3516.88 Z"
         id="path490" /></clipPath><clipPath
       clipPathUnits="userSpaceOnUse"
       id="clipPath498"><path
         d="m 3516.88,1962.21 h 564.83 v 786.78 h -564.83 z"
         id="path496" /></clipPath><clipPath
       clipPathUnits="userSpaceOnUse"
       id="clipPath502"><path
         d="m 3516.88,1962.21 h 564.832 v 786.777 H 3516.88 Z"
         id="path500" /></clipPath><clipPath
       clipPathUnits="userSpaceOnUse"
       id="clipPath520"><path
         d="m 3516.88,1997.68 h 501.621 v 751.309 H 3516.88 Z"
         id="path518" /></clipPath><clipPath
       clipPathUnits="userSpaceOnUse"
       id="clipPath526"><path
         d="m 3516.88,1997.68 h 501.62 v 751.31 h -501.62 z"
         id="path524" /></clipPath><clipPath
       clipPathUnits="userSpaceOnUse"
       id="clipPath530"><path
         d="m 3516.88,1997.68 h 501.621 v 751.309 H 3516.88 Z"
         id="path528" /></clipPath></defs><sodipodi:namedview
     id="namedview4"
     pagecolor="#ffffff"
     bordercolor="#666666"
     borderopacity="1.0"
     inkscape:pageshadow="2"
     inkscape:pageopacity="0.0"
     inkscape:pagecheckerboard="0" /><g
     id="g8"
     inkscape:groupmode="layer"
     inkscape:label="ink_ext_XXXXXX"
     transform="matrix(1.3333333,0,0,-1.3333333,0,666.66667)"><g
       id="g10"
       transform="scale(0.1)"><path
         d="m 4150.16,2737.82 c 871.73,-465.7 871.73,-1220.74 -0.02,-1686.44 -871.75,-465.704 -2285.1,-465.704 -3156.843,-0.01 -871.742,465.7 -871.731,1220.75 0.008,1686.45 871.745,465.69 2285.105,465.69 3156.855,0"
         style="fill:#f5f5f5;fill-opacity:1;fill-rule:nonzero;stroke:none"
         id="path12" /><path
         d="M 1673.36,1230.79 961.711,1644.61 2165.53,2340.35"
         style="fill:#e0e0e0;fill-opacity:1;fill-rule:nonzero;stroke:none"
         id="path14" /><path
         d="m 646.07,1669.69 289.618,-167.21 c 10.75,-6.2 28.171,-6.2 38.921,0 l 400.131,233.4 c 10.75,6.2 10.75,16.26 0,22.46 l -289.62,167.21 c -10.74,6.21 -28.16,6.21 -38.91,0 L 646.07,1692.16 c -10.742,-6.21 -10.742,-16.27 0,-22.47"
         style="fill:#e0e0e0;fill-opacity:1;fill-rule:nonzero;stroke:none"
         id="path16" /><path
         d="m 677.477,1695.97 c -20.11,32.22 -81.68,67.61 -162.692,85.11 -81.019,17.49 -162.359,39.25 -143.738,86.24 20.09,50.7 95.367,53.18 169.027,23.01 80.5,-32.98 140.012,-114.66 141.153,-165.99"
         style="fill:#27debf;fill-opacity:1;fill-rule:nonzero;stroke:none"
         id="path18" /><g
         id="g20"><g
           id="g22"
           clip-path="url(#clipPath26)"><g
             id="g28" /><g
             id="g46"><g
               clip-path="url(#clipPath32)"
               opacity="0.100006"
               id="g44"><g
                 id="g42"><g
                   clip-path="url(#clipPath36)"
                   id="g40"><path
                     d="m 677.477,1695.97 c -20.11,32.22 -81.68,67.61 -162.692,85.11 -81.019,17.49 -162.359,39.25 -143.738,86.24 20.09,50.7 95.367,53.18 169.027,23.01 80.5,-32.98 140.012,-114.66 141.153,-165.99"
                     style="fill:#000000;fill-opacity:1;fill-rule:nonzero;stroke:none"
                     id="path38" /></g></g></g></g></g></g><path
         d="m 683.824,1710.64 c -2.25,0 -4.41,1.25 -5.453,3.41 -64.316,133.08 -213.387,154.52 -260.406,147.28 -3.262,-0.53 -6.391,1.75 -6.891,5.06 -0.511,3.29 1.75,6.39 5.047,6.9 49.344,7.65 205.844,-14.73 273.141,-153.97 1.453,-3.01 0.191,-6.62 -2.809,-8.08 -0.851,-0.41 -1.75,-0.6 -2.629,-0.6"
         style="fill:#ffffff;fill-opacity:1;fill-rule:nonzero;stroke:none"
         id="path48" /><path
         d="m 677.477,1695.97 c 0,0 -38.719,153.34 -136.762,235.77 -29.117,24.49 -60.188,55.11 -81.899,76.28 -46.601,45.43 -27.171,94.84 37.411,93.93 95.929,-1.35 166.148,-82.13 196.531,-187.86 30.387,-105.73 -15.281,-218.12 -15.281,-218.12"
         style="fill:#27debf;fill-opacity:1;fill-rule:nonzero;stroke:none"
         id="path50" /><path
         d="m 692.766,1755.48 c -3.09,0 -5.723,2.35 -6.024,5.49 -18.066,195 -166.828,293.03 -207.308,303.39 -3.231,0.83 -5.18,4.12 -4.348,7.36 0.816,3.24 4.129,5.21 7.359,4.36 49.149,-12.58 197.848,-114.33 216.348,-313.99 0.312,-3.32 -2.141,-6.28 -5.469,-6.59 -0.191,-0.01 -0.371,-0.02 -0.558,-0.02"
         style="fill:#ffffff;fill-opacity:1;fill-rule:nonzero;stroke:none"
         id="path52" /><path
         d="m 945.934,1527.38 -273.289,157.78 v 586.06 l 273.289,-157.79 z"
         style="fill:#263238;fill-opacity:1;fill-rule:nonzero;stroke:none"
         id="path54" /><path
         d="m 945.934,2113.43 390.406,225.41 0.01,-586.05 -390.416,-225.41 z"
         style="fill:#37474f;fill-opacity:1;fill-rule:nonzero;stroke:none"
         id="path56" /><path
         d="m 1336.34,2338.83 -390.406,-225.41 -273.289,157.79 390.405,225.4 z"
         style="fill:#455a64;fill-opacity:1;fill-rule:nonzero;stroke:none"
         id="path58" /><path
         d="m 1114.59,2120.64 53.11,30.66 c 6.89,3.99 12.48,2.16 12.48,-4.05 0,-6.23 -5.59,-14.5 -12.48,-18.48 l -53.13,-30.68 c -6.89,-3.98 -12.48,-2.16 -12.48,4.07 0,6.23 5.61,14.5 12.5,18.48"
         style="fill:#263238;fill-opacity:1;fill-rule:nonzero;stroke:none"
         id="path60" /><path
         d="m 977.793,1816.22 312.327,180.32 7.18,-4.15 -7.19,-212.92 7.18,-4.15 -312.325,-180.32 -7.184,4.15"
         style="fill:#263238;fill-opacity:1;fill-rule:nonzero;stroke:none"
         id="path62" /><path
         d="M 984.977,1812.07 1297.3,1992.39 V 1775.32 L 984.965,1595 Z"
         style="fill:#455a64;fill-opacity:1;fill-rule:nonzero;stroke:none"
         id="path64" /><path
         d="m 1107.4,1845.96 53.11,30.67 c 6.9,3.98 12.49,2.16 12.49,-4.06 0,-6.23 -5.59,-14.5 -12.49,-18.49 l -53.12,-30.66 c -6.89,-3.98 -12.48,-2.16 -12.48,4.06 0,6.22 5.6,14.5 12.49,18.48"
         style="fill:#263238;fill-opacity:1;fill-rule:nonzero;stroke:none"
         id="path66" /><path
         d="m 977.793,2086.22 312.327,180.33 7.18,-4.16 -7.19,-212.92 7.18,-4.15 -312.325,-180.32 -7.184,4.15"
         style="fill:#263238;fill-opacity:1;fill-rule:nonzero;stroke:none"
         id="path68" /><path
         d="M 984.977,2082.07 1297.3,2262.39 V 2045.32 L 984.965,1865 Z"
         style="fill:#455a64;fill-opacity:1;fill-rule:nonzero;stroke:none"
         id="path70" /><path
         d="m 1107.4,2115.97 53.11,30.66 c 6.9,3.99 12.49,2.17 12.49,-4.05 0,-6.23 -5.59,-14.51 -12.49,-18.49 l -53.12,-30.66 c -6.89,-3.98 -12.48,-2.16 -12.48,4.06 0,6.22 5.6,14.5 12.49,18.48"
         style="fill:#263238;fill-opacity:1;fill-rule:nonzero;stroke:none"
         id="path72" /><path
         d="m 945.934,2138.35 -273.289,157.78 v 586.06 L 945.934,2724.4 Z"
         style="fill:#263238;fill-opacity:1;fill-rule:nonzero;stroke:none"
         id="path74" /><path
         d="m 945.934,2724.4 390.406,225.41 0.01,-586.06 -390.416,-225.4 z"
         style="fill:#37474f;fill-opacity:1;fill-rule:nonzero;stroke:none"
         id="path76" /><path
         d="M 1336.34,2949.8 945.934,2724.39 672.645,2882.18 1063.05,3107.59 Z"
         style="fill:#455a64;fill-opacity:1;fill-rule:nonzero;stroke:none"
         id="path78" /><path
         d="m 984.977,2701.86 312.323,180.32 7.18,-4.14 v -217.08 l -312.335,-180.32 -7.18,4.16"
         style="fill:#263238;fill-opacity:1;fill-rule:nonzero;stroke:none"
         id="path80" /><path
         d="m 1114.59,2731.61 53.11,30.66 c 6.89,3.98 12.48,2.17 12.48,-4.06 0,-6.22 -5.59,-14.5 -12.48,-18.48 l -53.13,-30.66 c -6.89,-3.98 -12.48,-2.17 -12.48,4.06 0,6.22 5.61,14.5 12.5,18.48"
         style="fill:#263238;fill-opacity:1;fill-rule:nonzero;stroke:none"
         id="path82" /><path
         d="m 977.793,2427.19 312.327,180.32 -0.01,-217.07 7.18,-4.15 -312.325,-180.32 -7.184,4.15"
         style="fill:#263238;fill-opacity:1;fill-rule:nonzero;stroke:none"
         id="path84" /><path
         d="M 984.977,2423.04 1297.3,2603.37 V 2386.29 L 984.965,2205.97 Z"
         style="fill:#455a64;fill-opacity:1;fill-rule:nonzero;stroke:none"
         id="path86" /><path
         d="m 1107.4,2456.93 53.11,30.66 c 6.9,4 12.49,2.18 12.49,-4.05 0,-6.23 -5.59,-14.5 -12.49,-18.49 l -53.12,-30.66 c -6.89,-3.98 -12.48,-2.16 -12.48,4.06 0,6.23 5.6,14.5 12.49,18.48"
         style="fill:#263238;fill-opacity:1;fill-rule:nonzero;stroke:none"
         id="path88" /><path
         d="M 984.973,2701.87 1297.3,2882.19 1297.29,2665.12 984.961,2484.8 Z"
         style="fill:#263238;fill-opacity:1;fill-rule:nonzero;stroke:none"
         id="path90" /><path
         d="m 1453.47,2774.95 -170.96,98.68 -0.01,-191.24 170.96,-98.68 z"
         style="fill:#263238;fill-opacity:1;fill-rule:nonzero;stroke:none"
         id="path92" /><path
         d="m 1102.09,2453.93 v 270.48 l 67.02,38.82 11.07,-16.28 195.21,112.69 v -247.93"
         style="fill:#27debf;fill-opacity:1;fill-rule:nonzero;stroke:none"
         id="path94" /><g
         id="g96"><g
           id="g98"
           clip-path="url(#clipPath102)"><g
             id="g104" /><g
             id="g122"><g
               clip-path="url(#clipPath108)"
               opacity="0.199997"
               id="g120"><g
                 id="g118"><g
                   clip-path="url(#clipPath112)"
                   id="g116"><path
                     d="m 1102.09,2453.93 v 270.48 l 67.02,38.82 11.07,-16.28 195.21,112.69 v -247.93"
                     style="fill:#000000;fill-opacity:1;fill-rule:nonzero;stroke:none"
                     id="path114" /></g></g></g></g></g></g><path
         d="m 1102.09,2453.93 19.52,236.67 273.3,157.78 -19.52,-236.67 z"
         style="fill:#27debf;fill-opacity:1;fill-rule:nonzero;stroke:none"
         id="path124" /><path
         d="m 1141.14,2594.63 -149.003,86.02 -0.008,-191.24 149.001,-86.03 z"
         style="fill:#37474f;fill-opacity:1;fill-rule:nonzero;stroke:none"
         id="path126" /><path
         d="m 1141.14,2611.71 312.33,180.32 -0.01,-217.07 -312.33,-180.32 z"
         style="fill:#455a64;fill-opacity:1;fill-rule:nonzero;stroke:none"
         id="path128" /><path
         d="m 1263.56,2645.6 53.12,30.67 c 6.89,3.98 12.48,2.16 12.48,-4.06 0,-6.23 -5.59,-14.5 -12.48,-18.49 l -53.12,-30.66 c -6.9,-3.98 -12.49,-2.16 -12.49,4.06 0,6.23 5.6,14.5 12.49,18.48"
         style="fill:#263238;fill-opacity:1;fill-rule:nonzero;stroke:none"
         id="path130" /><path
         d="m 1141.14,2611.71 -10.41,6.01 v -217.07 l 10.41,-6.01 z"
         style="fill:#263238;fill-opacity:1;fill-rule:nonzero;stroke:none"
         id="path132" /><path
         d="m 1130.73,2617.71 312.33,180.33 10.41,-6 -312.33,-180.33 z"
         style="fill:#37474f;fill-opacity:1;fill-rule:nonzero;stroke:none"
         id="path134" /><path
         d="m 3749.7,4176.99 -40.6,23.62 L 1637.46,3004.55 V 1272.33 c 0,-13.78 4.83,-23.46 12.64,-28 l -0.01,-0.01 0.05,-0.03 h 0.01 l 40.59,-23.61 v 0 c 7.84,-4.53 18.67,-3.88 30.63,3.02 l 1985.04,1146.08 c 23.92,13.81 43.31,47.39 43.31,75"
         style="fill:#e6e6e6;fill-opacity:1;fill-rule:nonzero;stroke:none"
         id="path136" /><path
         d="m 1702.03,1222.79 c -11.87,0 -18.96,9.69 -18.96,25.91 v 1729.34 l 2061.63,1190.29 0.01,-1723.55 c 0,-25.98 -18.3,-57.68 -40.8,-70.67 L 1718.87,1228.03 c -5.95,-3.43 -11.77,-5.24 -16.84,-5.24"
         style="fill:#fafafa;fill-opacity:1;fill-rule:nonzero;stroke:none"
         id="path138" /><path
         d="M 3749.7,4176.99 1678.06,2980.93 V 1248.7 c 0,-19.58 9.76,-30.91 23.97,-30.91 5.82,0 12.39,1.91 19.34,5.91 l 1985.04,1146.08 c 23.92,13.81 43.31,47.39 43.31,75 z m -10,-17.32 0.02,-1714.89 c 0,-23.98 -17.54,-54.36 -38.31,-66.34 L 1716.37,1232.37 c -5.19,-3 -10.15,-4.58 -14.34,-4.58 -12.6,0 -13.97,14.63 -13.97,20.91 V 2975.15 L 3739.7,4159.67"
         style="fill:#e0e0e0;fill-opacity:1;fill-rule:nonzero;stroke:none"
         id="path140" /><path
         d="m 1678.06,2980.93 v -187.49 l 2071.63,1196.06 0.01,187.49 z"
         style="fill:#27debf;fill-opacity:1;fill-rule:nonzero;stroke:none"
         id="path142" /><path
         d="m 2977.92,3657.88 0.01,-40.36 c 0,-8.25 5.85,-11.62 12.99,-7.5 l 636.93,367.73 -0.01,70.36 -636.93,-367.73 c -7.14,-4.13 -12.99,-14.25 -12.99,-22.5"
         style="fill:#fafafa;fill-opacity:1;fill-rule:nonzero;stroke:none"
         id="path144" /><path
         d="m 3696.11,4087.52 c 7.18,4.14 12.98,0.79 12.98,-7.5 v -40.36 c 0,-8.28 -5.8,-18.36 -12.98,-22.5 l -68.25,-39.41 -0.02,70.36"
         style="fill:#455a64;fill-opacity:1;fill-rule:nonzero;stroke:none"
         id="path146" /><path
         d="m 3666.62,4017.59 c -2.11,-1.21 -3.95,-1.41 -5.44,-0.53 -2.55,1.46 -4.12,5.82 -4.12,11.36 0,10.64 5.67,22.9 12.38,26.78 1.24,0.71 2.39,1.07 3.43,1.07 0.72,0 1.41,-0.18 2.02,-0.54 2.54,-1.47 4.12,-5.82 4.12,-11.37 0,-10.63 -5.67,-22.89 -12.39,-26.77 m 24.43,14.59 -7.61,2.37 c 0.78,3.24 1.22,6.56 1.22,9.81 0,7.79 -2.53,13.71 -6.94,16.27 -3.28,1.88 -7.22,1.7 -11.1,-0.55 -8.53,-4.92 -15.21,-18.83 -15.21,-31.66 0,-7.78 2.53,-13.71 6.94,-16.25 1.49,-0.86 3.12,-1.29 4.83,-1.29 2.02,0 4.15,0.61 6.26,1.83 5.13,2.96 9.56,9.19 12.31,16.45 l 7.62,-2.38 c 0.28,-0.08 0.56,-0.12 0.84,-0.12 1.2,0 2.32,0.77 2.7,1.98 0.46,1.49 -0.37,3.08 -1.86,3.54"
         style="fill:#fafafa;fill-opacity:1;fill-rule:nonzero;stroke:none"
         id="path148" /><path
         d="m 3696.82,4319.07 c -7.84,4.82 -18.84,4.29 -31.02,-2.74 L 1680.77,3170.26 c -23.92,-13.81 -43.31,-47.38 -43.31,-75 v -90.71 l 40.61,-23.62 2071.63,1196.06 v 90.71 c 0,13.72 -4.78,23.37 -12.54,27.91 -7.28,4.27 -33.29,19.14 -40.34,23.46"
         style="fill:#263238;fill-opacity:1;fill-rule:nonzero;stroke:none"
         id="path150" /><path
         d="m 1678.06,3071.64 c 0,27.62 19.39,61.2 43.31,75 l 1985.02,1146.07 c 23.92,13.81 43.31,2.62 43.31,-25 V 4177 L 1678.06,2980.93"
         style="fill:#37474f;fill-opacity:1;fill-rule:nonzero;stroke:none"
         id="path152" /><path
         d="m 3737.59,4295.37 c -7.9,4.9 -18.9,4.4 -31.2,-2.71 l -1985,-1146 c -12,-6.89 -22.8,-18.79 -30.6,-32.29 l -40.7,23.5 c 7.9,13.59 18.7,25.5 30.7,32.4 l 1985,1146.1 c 12.2,7 23.21,7.5 31,2.7 7.1,-4.3 33.1,-19.2 40.4,-23.41 0.1,-0.09 0.3,-0.2 0.4,-0.29"
         style="fill:#455a64;fill-opacity:1;fill-rule:nonzero;stroke:none"
         id="path154" /><path
         d="m 3505.98,4130.21 c -11.2,-6.47 -20.29,-22.23 -20.29,-35.18 0,-12.95 9.09,-18.21 20.29,-11.73 11.23,6.48 20.32,22.23 20.32,35.18 0,12.96 -9.09,18.2 -20.32,11.73"
         style="fill:#27debf;fill-opacity:1;fill-rule:nonzero;stroke:none"
         id="path156" /><path
         d="m 3577.07,4171.15 c -11.22,-6.48 -20.31,-22.23 -20.31,-35.18 0,-12.95 9.09,-18.21 20.31,-11.73 11.21,6.48 20.31,22.23 20.31,35.18 0,12.96 -9.1,18.2 -20.31,11.73"
         style="fill:#27debf;fill-opacity:1;fill-rule:nonzero;stroke:none"
         id="path158" /><path
         d="m 3648.14,4212.09 c -11.21,-6.48 -20.3,-22.23 -20.3,-35.2 0,-12.94 9.09,-18.19 20.3,-11.71 11.22,6.46 20.32,22.21 20.32,35.18 0,12.94 -9.1,18.19 -20.32,11.73"
         style="fill:#27debf;fill-opacity:1;fill-rule:nonzero;stroke:none"
         id="path160" /><path
         d="m 1702.03,1222.79 c -11.87,0 -18.96,9.69 -18.96,25.91 v 1541.85 l 396.23,228.76 V 1436.13 l -360.43,-208.1 c -5.95,-3.42 -11.77,-5.24 -16.84,-5.24"
         style="fill:#f5f5f5;fill-opacity:1;fill-rule:nonzero;stroke:none"
         id="path162" /><path
         d="M 2084.29,3027.98 1678.06,2793.44 V 1248.71 c 0,-19.59 9.76,-30.92 23.96,-30.92 5.82,0 12.39,1.91 19.35,5.92 l 362.92,209.54 z m -10,-17.32 V 1439.02 l -357.92,-206.65 c -5.19,-2.99 -10.15,-4.58 -14.35,-4.58 -12.6,0 -13.96,14.63 -13.96,20.92 v 1538.96 l 386.23,222.99"
         style="fill:#e0e0e0;fill-opacity:1;fill-rule:nonzero;stroke:none"
         id="path164" /><path
         d="m 1812.93,2777.48 194.34,112.32 c 7.17,4.16 12.98,0.81 12.98,-7.48 l -0.01,-16.91 c 0,-8.28 -5.81,-18.36 -12.98,-22.5 l -194.34,-112.32 c -7.17,-4.16 -12.99,-0.8 -12.98,7.48 v 16.91 c 0,8.29 5.82,18.36 12.99,22.5"
         style="fill:#e0e0e0;fill-opacity:1;fill-rule:nonzero;stroke:none"
         id="path166" /><path
         d="m 1759.32,2731.53 v -16.91 c 0,-8.28 -5.82,-18.35 -13,-22.5 l -14.63,-8.45 c -7.17,-4.14 -12.99,-0.78 -12.99,7.5 v 16.91 c 0,8.28 5.82,18.36 12.99,22.5 l 14.63,8.45 c 7.18,4.14 13,0.78 13,-7.5"
         style="fill:#27debf;fill-opacity:1;fill-rule:nonzero;stroke:none"
         id="path168" /><path
         d="m 1812.93,2684.02 194.34,112.32 c 7.17,4.15 12.98,0.8 12.98,-7.49 l -0.01,-16.9 c 0,-8.29 -5.81,-18.36 -12.98,-22.51 l -194.34,-112.31 c -7.17,-4.16 -12.99,-0.81 -12.98,7.48 v 16.9 c 0,8.29 5.82,18.37 12.99,22.51"
         style="fill:#e0e0e0;fill-opacity:1;fill-rule:nonzero;stroke:none"
         id="path170" /><path
         d="m 1759.32,2638.07 v -16.9 c 0,-8.29 -5.82,-18.37 -13,-22.51 l -14.63,-8.45 c -7.17,-4.14 -12.99,-0.78 -12.99,7.5 v 16.91 c 0,8.27 5.82,18.36 12.99,22.5 l 14.63,8.45 c 7.18,4.14 13,0.78 13,-7.5"
         style="fill:#27debf;fill-opacity:1;fill-rule:nonzero;stroke:none"
         id="path172" /><path
         d="m 1812.93,2590.56 194.34,112.32 c 7.17,4.15 12.98,0.8 12.98,-7.49 l -0.01,-16.9 c 0,-8.29 -5.81,-18.36 -12.98,-22.51 l -194.34,-112.32 c -7.17,-4.15 -12.99,-0.8 -12.98,7.49 v 16.9 c 0,8.29 5.82,18.36 12.99,22.51"
         style="fill:#e0e0e0;fill-opacity:1;fill-rule:nonzero;stroke:none"
         id="path174" /><path
         d="m 1759.32,2544.61 v -16.91 c 0,-8.29 -5.82,-18.36 -13,-22.5 l -14.63,-8.46 c -7.17,-4.13 -12.99,-0.78 -12.99,7.5 v 16.91 c 0,8.28 5.82,18.37 12.99,22.5 l 14.63,8.46 c 7.18,4.13 13,0.77 13,-7.5"
         style="fill:#27debf;fill-opacity:1;fill-rule:nonzero;stroke:none"
         id="path176" /><path
         d="m 1812.93,2280.64 194.34,112.33 c 7.17,4.14 12.98,0.79 12.98,-7.5 l -0.01,-16.9 c 0,-8.28 -5.81,-18.36 -12.98,-22.51 l -194.34,-112.32 c -7.17,-4.15 -12.99,-0.8 -12.98,7.49 v 16.91 c 0,8.28 5.82,18.35 12.99,22.5"
         style="fill:#e0e0e0;fill-opacity:1;fill-rule:nonzero;stroke:none"
         id="path178" /><path
         d="m 1759.32,2234.68 v -16.89 c 0,-8.3 -5.82,-18.37 -13,-22.5 l -14.63,-8.46 c -7.17,-4.15 -12.99,-0.79 -12.99,7.5 v 16.9 c 0,8.29 5.82,18.36 12.99,22.5 l 14.63,8.45 c 7.18,4.15 13,0.79 13,-7.5"
         style="fill:#27debf;fill-opacity:1;fill-rule:nonzero;stroke:none"
         id="path180" /><path
         d="m 1812.93,2197.87 194.34,112.32 c 7.17,4.15 12.98,0.79 12.98,-7.49 l -0.01,-16.91 c 0,-8.28 -5.81,-18.35 -12.98,-22.5 l -194.34,-112.33 c -7.17,-4.14 -12.99,-0.79 -12.98,7.5 v 16.9 c 0,8.28 5.82,18.35 12.99,22.51"
         style="fill:#e0e0e0;fill-opacity:1;fill-rule:nonzero;stroke:none"
         id="path182" /><path
         d="M 1759.32,2151.91 V 2135 c 0,-8.28 -5.82,-18.35 -13,-22.5 l -14.63,-8.45 c -7.17,-4.14 -12.99,-0.78 -12.99,7.5 v 16.91 c 0,8.28 5.82,18.36 12.99,22.5 l 14.63,8.45 c 7.18,4.14 13,0.78 13,-7.5"
         style="fill:#27debf;fill-opacity:1;fill-rule:nonzero;stroke:none"
         id="path184" /><path
         d="m 1812.93,2115.09 194.34,112.32 c 7.17,4.15 12.98,0.8 12.98,-7.49 l -0.01,-16.9 c 0,-8.29 -5.81,-18.36 -12.98,-22.51 l -194.34,-112.32 c -7.17,-4.15 -12.99,-0.8 -12.98,7.49 v 16.9 c 0,8.29 5.82,18.36 12.99,22.51"
         style="fill:#e0e0e0;fill-opacity:1;fill-rule:nonzero;stroke:none"
         id="path186" /><path
         d="m 1759.32,2069.13 v -16.91 c 0,-8.28 -5.82,-18.35 -13,-22.5 l -14.63,-8.45 c -7.17,-4.14 -12.99,-0.78 -12.99,7.5 v 16.91 c 0,8.28 5.82,18.36 12.99,22.5 l 14.63,8.45 c 7.18,4.14 13,0.78 13,-7.5"
         style="fill:#27debf;fill-opacity:1;fill-rule:nonzero;stroke:none"
         id="path188" /><path
         d="m 1799.94,2488.55 v -29.16 l 25.25,29.16"
         style="fill:#27debf;fill-opacity:1;fill-rule:nonzero;stroke:none"
         id="path190" /><path
         d="m 1840.57,2494.56 c 0,-5.41 3.88,-7.56 8.66,-4.81 l 162.36,93.49 c 4.78,2.76 8.66,9.44 8.66,14.92 0,5.49 -3.87,7.7 -8.66,4.94 l -162.36,-93.75 c -4.78,-2.75 -8.66,-9.38 -8.66,-14.79"
         style="fill:#e0e0e0;fill-opacity:1;fill-rule:nonzero;stroke:none"
         id="path192" /><path
         d="m 1799.94,2441.66 v -29.16 l 25.25,29.16"
         style="fill:#27debf;fill-opacity:1;fill-rule:nonzero;stroke:none"
         id="path194" /><path
         d="m 1840.57,2447.67 c 0,-5.42 3.88,-7.56 8.66,-4.81 l 162.36,93.49 c 4.78,2.76 8.66,9.44 8.66,14.92 0,5.49 -3.87,7.7 -8.66,4.94 l -162.36,-93.75 c -4.78,-2.75 -8.66,-9.38 -8.66,-14.79"
         style="fill:#e0e0e0;fill-opacity:1;fill-rule:nonzero;stroke:none"
         id="path196" /><path
         d="m 1799.94,2394.77 v -29.16 l 25.25,29.16"
         style="fill:#27debf;fill-opacity:1;fill-rule:nonzero;stroke:none"
         id="path198" /><path
         d="m 1840.57,2400.78 c 0,-5.42 3.88,-7.56 8.66,-4.81 l 162.36,93.49 c 4.78,2.76 8.66,9.44 8.66,14.92 0,5.49 -3.87,7.7 -8.66,4.94 l -162.36,-93.75 c -4.78,-2.75 -8.66,-9.38 -8.66,-14.79"
         style="fill:#e0e0e0;fill-opacity:1;fill-rule:nonzero;stroke:none"
         id="path200" /><path
         d="m 1799.94,2347.88 v -29.16 l 25.25,29.16"
         style="fill:#27debf;fill-opacity:1;fill-rule:nonzero;stroke:none"
         id="path202" /><path
         d="m 1840.57,2353.89 c 0,-5.41 3.88,-7.56 8.66,-4.8 l 162.36,93.48 c 4.78,2.76 8.66,9.44 8.66,14.93 0,5.48 -3.87,7.69 -8.66,4.93 l -162.36,-93.74 c -4.78,-2.76 -8.66,-9.38 -8.66,-14.8"
         style="fill:#e0e0e0;fill-opacity:1;fill-rule:nonzero;stroke:none"
         id="path204" /><path
         d="m 2206.15,2972.09 v -244.4 c 0,-10.22 7.18,-14.37 16.04,-9.26 l 268.74,155.16 c 8.85,5.12 16.03,17.55 16.03,27.78 v 200.98 c 0,10.22 -7.18,14.37 -16.03,9.26 l -155.95,-90.04 c -8.85,-5.11 -16.03,-0.96 -16.03,9.26 v 6.39 c 0,10.23 -7.18,14.37 -16.03,9.25 l -80.73,-46.61 c -8.86,-5.11 -16.04,-17.55 -16.04,-27.77"
         style="fill:#27debf;fill-opacity:1;fill-rule:nonzero;stroke:none"
         id="path206" /><path
         d="m 2258.97,2681.59 v -15.65 c 0,-7.68 5.38,-10.78 12.03,-6.95 l 201.58,116.39 c 6.64,3.83 12.02,13.16 12.02,20.83 v 15.64 c 0,7.67 -5.38,10.78 -12.02,6.95 L 2271,2702.42 c -6.64,-3.84 -12.03,-13.16 -12.03,-20.83"
         style="fill:#e0e0e0;fill-opacity:1;fill-rule:nonzero;stroke:none"
         id="path208" /><path
         d="m 2579.77,3186.64 v -244.39 c 0,-10.23 7.19,-14.37 16.05,-9.27 l 268.73,155.16 c 8.86,5.12 16.04,17.55 16.04,27.78 v 200.97 c 0,10.24 -7.18,14.38 -16.04,9.27 l -155.94,-90.03 c -8.86,-5.12 -16.04,-0.97 -16.04,9.26 v 6.38 c 0,10.23 -7.16,14.37 -16.02,9.26 l -80.73,-46.62 c -8.86,-5.11 -16.05,-17.55 -16.05,-27.77"
         style="fill:#27debf;fill-opacity:1;fill-rule:nonzero;stroke:none"
         id="path210" /><path
         d="m 2632.6,2896.13 v -15.65 c 0,-7.67 5.38,-10.78 12.02,-6.94 l 201.58,116.38 c 6.64,3.84 12.03,13.16 12.03,20.83 v 15.65 c 0,7.66 -5.39,10.77 -12.03,6.94 l -201.58,-116.38 c -6.64,-3.83 -12.02,-13.16 -12.02,-20.83"
         style="fill:#e0e0e0;fill-opacity:1;fill-rule:nonzero;stroke:none"
         id="path212" /><path
         d="M 2206.15,2481.11 V 2236.7 c 0,-10.22 7.18,-14.36 16.04,-9.25 l 268.74,155.16 c 8.85,5.11 16.03,17.54 16.03,27.77 v 200.98 c 0,10.23 -7.18,14.37 -16.03,9.27 l -155.95,-90.04 c -8.85,-5.12 -16.03,-0.96 -16.03,9.25 v 6.39 c 0,10.23 -7.18,14.38 -16.03,9.26 l -80.73,-46.61 c -8.86,-5.11 -16.04,-17.56 -16.04,-27.77"
         style="fill:#27debf;fill-opacity:1;fill-rule:nonzero;stroke:none"
         id="path214" /><path
         d="m 2258.97,2190.6 v -15.65 c 0,-7.67 5.38,-10.78 12.03,-6.94 l 201.58,116.38 c 6.64,3.84 12.02,13.16 12.02,20.83 v 15.65 c 0,7.66 -5.38,10.77 -12.02,6.94 L 2271,2211.43 c -6.64,-3.84 -12.03,-13.16 -12.03,-20.83"
         style="fill:#e0e0e0;fill-opacity:1;fill-rule:nonzero;stroke:none"
         id="path216" /><path
         d="m 2579.77,2695.65 v -244.39 c 0,-10.23 7.19,-14.37 16.05,-9.26 l 268.73,155.16 c 8.86,5.11 16.04,17.55 16.04,27.77 v 200.98 c 0,10.23 -7.18,14.37 -16.04,9.26 l -155.94,-90.03 c -8.86,-5.12 -16.04,-0.97 -16.04,9.26 v 6.38 c 0,10.23 -7.16,14.37 -16.02,9.26 l -80.73,-46.62 c -8.86,-5.11 -16.05,-17.55 -16.05,-27.77"
         style="fill:#27debf;fill-opacity:1;fill-rule:nonzero;stroke:none"
         id="path218" /><path
         d="m 2632.6,2405.15 v -15.65 c 0,-7.68 5.38,-10.78 12.02,-6.95 l 201.58,116.39 c 6.64,3.83 12.03,13.16 12.03,20.82 v 15.65 c 0,7.67 -5.39,10.78 -12.03,6.95 l -201.58,-116.38 c -6.64,-3.84 -12.02,-13.16 -12.02,-20.83"
         style="fill:#e0e0e0;fill-opacity:1;fill-rule:nonzero;stroke:none"
         id="path220" /><path
         d="m 2957.78,3412.97 v -244.38 c 0,-10.23 7.18,-14.38 16.03,-9.27 l 268.74,155.16 c 8.85,5.11 16.03,17.56 16.03,27.77 v 200.98 c 0,10.23 -7.18,14.38 -16.03,9.26 l -155.94,-90.03 c -8.86,-5.12 -16.04,-0.97 -16.04,9.26 v 6.39 c 0,10.23 -7.17,14.36 -16.03,9.25 l -80.73,-46.62 c -8.85,-5.11 -16.03,-17.54 -16.03,-27.77"
         style="fill:#27debf;fill-opacity:1;fill-rule:nonzero;stroke:none"
         id="path222" /><path
         d="m 3006.22,3110.68 v -15.65 c 0,-7.67 5.39,-10.78 12.03,-6.94 l 201.58,116.38 c 6.64,3.84 12.02,13.16 12.02,20.83 v 15.65 c 0,7.67 -5.38,10.77 -12.02,6.94 l -201.58,-116.38 c -6.64,-3.83 -12.03,-13.16 -12.03,-20.83"
         style="fill:#e0e0e0;fill-opacity:1;fill-rule:nonzero;stroke:none"
         id="path224" /><path
         d="m 3327.03,3615.73 v -244.4 c 0,-10.22 7.18,-14.37 16.04,-9.25 l 268.74,155.16 c 8.85,5.11 16.03,17.54 16.03,27.77 v 200.98 c 0,10.23 -7.18,14.37 -16.03,9.26 l -155.95,-90.03 c -8.86,-5.12 -16.04,-0.97 -16.04,9.25 v 6.39 c 0,10.23 -7.16,14.37 -16.02,9.25 l -80.73,-46.61 c -8.86,-5.11 -16.04,-17.55 -16.04,-27.77"
         style="fill:#27debf;fill-opacity:1;fill-rule:nonzero;stroke:none"
         id="path226" /><path
         d="m 3379.86,3325.23 v -15.65 c 0,-7.67 5.37,-10.78 12.02,-6.95 l 201.57,116.39 c 6.64,3.83 12.03,13.16 12.03,20.83 v 15.65 c 0,7.66 -5.39,10.77 -12.03,6.94 l -201.57,-116.38 c -6.65,-3.84 -12.02,-13.16 -12.02,-20.83"
         style="fill:#e0e0e0;fill-opacity:1;fill-rule:nonzero;stroke:none"
         id="path228" /><path
         d="m 3006.22,2619.88 v -15.65 c 0,-7.67 5.39,-10.78 12.03,-6.94 l 201.58,116.38 c 6.64,3.84 12.02,13.16 12.02,20.83 v 15.65 c 0,7.67 -5.38,10.77 -12.02,6.94 l -201.58,-116.38 c -6.64,-3.83 -12.03,-13.16 -12.03,-20.83"
         style="fill:#e0e0e0;fill-opacity:1;fill-rule:nonzero;stroke:none"
         id="path230" /><path
         d="m 3011.28,2963.37 209.08,120.71 c 9.56,5.52 17.32,1.04 17.32,-10 V 2832.7 c 0,-11.05 -7.76,-24.49 -17.32,-30.01 l -209.08,-120.71 c -9.57,-5.52 -17.32,-1.05 -17.32,10 v 241.39 c 0,11.04 7.75,24.48 17.32,30"
         style="fill:#fafafa;fill-opacity:1;fill-rule:nonzero;stroke:none"
         id="path232" /><path
         d="m 3011.28,2963.37 209.08,120.71 c 9.56,5.52 17.32,1.04 17.32,-10 V 2832.7 c 0,-11.05 -7.76,-24.49 -17.32,-30.01 l -209.08,-120.71 c -9.57,-5.52 -17.32,-1.05 -17.32,10 v 241.39 c 0,11.04 7.75,24.48 17.32,30 z"
         style="fill:none;stroke:#ebebeb;stroke-width:10;stroke-linecap:butt;stroke-linejoin:miter;stroke-miterlimit:10;stroke-dasharray:none;stroke-opacity:1"
         id="path234" /><path
         d="m 3244.95,3051.48 -46.59,-26.9 c -9.57,-5.53 -17.33,-18.96 -17.33,-30 v -53.81 c 0,-11.05 7.76,-15.53 17.33,-10 l 46.59,26.9 c 9.57,5.52 17.32,18.96 17.32,30 v 53.81 c 0,11.05 -7.75,15.52 -17.32,10"
         style="fill:#27debf;fill-opacity:1;fill-rule:nonzero;stroke:none"
         id="path236" /><path
         d="m 3027.22,2937.3 104.74,60.26 c 4.78,2.76 8.66,0.51 8.66,-5.01 v -3.34 c 0,-5.52 -3.88,-12.23 -8.66,-14.99 l -104.74,-60.37 c -4.79,-2.76 -8.66,-0.51 -8.66,5.01 v 3.45 c 0,5.53 3.87,12.24 8.66,14.99"
         style="fill:#ebebeb;fill-opacity:1;fill-rule:nonzero;stroke:none"
         id="path238" /><path
         d="m 3027.22,2890.45 104.74,60.26 c 4.78,2.76 8.66,0.51 8.66,-5.01 v -3.34 c 0,-5.52 -3.88,-12.23 -8.66,-14.98 L 3027.22,2867 c -4.79,-2.75 -8.66,-0.5 -8.66,5.02 v 3.44 c 0,5.54 3.87,12.24 8.66,14.99"
         style="fill:#ebebeb;fill-opacity:1;fill-rule:nonzero;stroke:none"
         id="path240" /><path
         d="m 3027.22,2843.61 104.74,60.27 c 4.78,2.75 8.66,0.5 8.66,-5.02 v -3.34 c 0,-5.52 -3.88,-12.23 -8.66,-14.99 l -104.74,-60.37 c -4.79,-2.76 -8.66,-0.52 -8.66,5 v 3.47 c 0,5.51 3.87,12.22 8.66,14.98"
         style="fill:#ebebeb;fill-opacity:1;fill-rule:nonzero;stroke:none"
         id="path242" /><path
         d="m 3027.22,2796.77 174,100.31 c 4.79,2.75 8.68,0.51 8.68,-5.01 v -3.34 c 0,-5.52 -3.88,-12.23 -8.67,-14.99 l -174.01,-100.42 c -4.79,-2.76 -8.66,-0.51 -8.66,5.01 v 3.45 c 0,5.52 3.87,12.24 8.66,14.99"
         style="fill:#ebebeb;fill-opacity:1;fill-rule:nonzero;stroke:none"
         id="path244" /><path
         d="m 3027.22,2749.92 174,100.31 c 4.79,2.76 8.68,0.51 8.68,-5.01 v -3.34 c 0,-5.52 -3.88,-12.23 -8.67,-14.99 l -174.01,-100.42 c -4.79,-2.76 -8.66,-0.51 -8.66,5.01 v 3.45 c 0,5.53 3.87,12.24 8.66,14.99"
         style="fill:#ebebeb;fill-opacity:1;fill-rule:nonzero;stroke:none"
         id="path246" /><path
         d="m 3371.81,2830.94 v -15.65 c 0,-7.67 5.38,-10.78 12.02,-6.95 l 201.58,116.39 c 6.64,3.84 12.03,13.16 12.03,20.83 v 15.64 c 0,7.67 -5.39,10.78 -12.03,6.95 l -201.58,-116.38 c -6.64,-3.84 -12.02,-13.16 -12.02,-20.83"
         style="fill:#e0e0e0;fill-opacity:1;fill-rule:nonzero;stroke:none"
         id="path248" /><path
         d="m 3376.86,3174.43 209.07,120.71 c 9.57,5.52 17.34,1.04 17.34,-10 v -241.39 c 0,-11.04 -7.77,-24.48 -17.34,-30 l -209.07,-120.72 c -9.56,-5.52 -17.31,-1.04 -17.31,10 v 241.4 c 0,11.04 7.75,24.48 17.31,30"
         style="fill:#fafafa;fill-opacity:1;fill-rule:nonzero;stroke:none"
         id="path250" /><path
         d="m 3376.86,3174.43 209.07,120.71 c 9.57,5.52 17.34,1.04 17.34,-10 v -241.39 c 0,-11.04 -7.77,-24.48 -17.34,-30 l -209.07,-120.72 c -9.56,-5.52 -17.31,-1.04 -17.31,10 v 241.4 c 0,11.04 7.75,24.48 17.31,30 z"
         style="fill:none;stroke:#ebebeb;stroke-width:10;stroke-linecap:butt;stroke-linejoin:miter;stroke-miterlimit:10;stroke-dasharray:none;stroke-opacity:1"
         id="path252" /><path
         d="m 3610.54,3262.54 -46.6,-26.91 c -9.57,-5.52 -17.33,-18.95 -17.33,-30 v -53.81 c 0,-11.04 7.76,-15.52 17.33,-10 l 46.6,26.91 c 9.57,5.52 17.32,18.95 17.32,30 v 53.81 c 0,11.04 -7.75,15.52 -17.32,10"
         style="fill:#27debf;fill-opacity:1;fill-rule:nonzero;stroke:none"
         id="path254" /><path
         d="m 3392.8,3148.36 104.73,60.25 c 4.78,2.77 8.67,0.52 8.67,-5 v -3.34 c 0,-5.53 -3.88,-12.23 -8.66,-15 l -104.75,-60.37 c -4.78,-2.76 -8.66,-0.51 -8.66,5.01 v 3.45 c 0,5.53 3.88,12.25 8.67,15"
         style="fill:#ebebeb;fill-opacity:1;fill-rule:nonzero;stroke:none"
         id="path256" /><path
         d="m 3392.8,3101.52 104.73,60.25 c 4.78,2.75 8.67,0.52 8.67,-5 v -3.34 c 0,-5.53 -3.88,-12.23 -8.66,-15 l -104.75,-60.37 c -4.78,-2.76 -8.66,-0.52 -8.66,5.01 v 3.45 c 0,5.52 3.88,12.23 8.67,15"
         style="fill:#ebebeb;fill-opacity:1;fill-rule:nonzero;stroke:none"
         id="path258" /><path
         d="m 3392.8,3054.67 104.73,60.26 c 4.78,2.76 8.67,0.51 8.67,-5.01 v -3.34 c 0,-5.52 -3.88,-12.23 -8.66,-14.99 l -104.75,-60.37 c -4.78,-2.76 -8.66,-0.51 -8.66,5.01 v 3.45 c 0,5.53 3.88,12.24 8.67,14.99"
         style="fill:#ebebeb;fill-opacity:1;fill-rule:nonzero;stroke:none"
         id="path260" /><path
         d="m 3392.8,3007.82 174,100.31 c 4.79,2.76 8.67,0.51 8.67,-5.01 v -3.34 c 0,-5.52 -3.88,-12.23 -8.67,-14.99 l -174.01,-100.42 c -4.78,-2.76 -8.66,-0.51 -8.66,5.01 v 3.45 c 0,5.53 3.88,12.24 8.67,14.99"
         style="fill:#ebebeb;fill-opacity:1;fill-rule:nonzero;stroke:none"
         id="path262" /><path
         d="m 3392.8,2960.98 174,100.31 c 4.79,2.76 8.67,0.51 8.67,-5.01 v -3.34 c 0,-5.52 -3.88,-12.23 -8.67,-14.99 l -174.01,-100.42 c -4.78,-2.76 -8.66,-0.51 -8.66,5.01 v 3.45 c 0,5.53 3.88,12.24 8.67,14.99"
         style="fill:#ebebeb;fill-opacity:1;fill-rule:nonzero;stroke:none"
         id="path264" /><path
         d="m 3006.22,2121.7 v -15.65 c 0,-7.68 5.39,-10.78 12.03,-6.95 l 201.58,116.39 c 6.64,3.83 12.02,13.16 12.02,20.82 v 15.65 c 0,7.67 -5.38,10.78 -12.02,6.95 l -201.58,-116.38 c -6.64,-3.84 -12.03,-13.16 -12.03,-20.83"
         style="fill:#e0e0e0;fill-opacity:1;fill-rule:nonzero;stroke:none"
         id="path266" /><path
         d="m 3011.28,2465.18 209.08,120.71 c 9.56,5.52 17.32,1.04 17.32,-10 V 2334.5 c 0,-11.04 -7.76,-24.47 -17.32,-30 l -209.08,-120.71 c -9.57,-5.52 -17.32,-1.05 -17.32,10 v 241.39 c 0,11.04 7.75,24.48 17.32,30"
         style="fill:#fafafa;fill-opacity:1;fill-rule:nonzero;stroke:none"
         id="path268" /><path
         d="m 3011.28,2465.18 209.08,120.71 c 9.56,5.52 17.32,1.04 17.32,-10 V 2334.5 c 0,-11.04 -7.76,-24.47 -17.32,-30 l -209.08,-120.71 c -9.57,-5.52 -17.32,-1.05 -17.32,10 v 241.39 c 0,11.04 7.75,24.48 17.32,30 z"
         style="fill:none;stroke:#ebebeb;stroke-width:10;stroke-linecap:butt;stroke-linejoin:miter;stroke-miterlimit:10;stroke-dasharray:none;stroke-opacity:1"
         id="path270" /><path
         d="m 3244.95,2553.29 -46.59,-26.9 c -9.57,-5.53 -17.33,-18.96 -17.33,-30 v -53.81 c 0,-11.05 7.76,-15.53 17.33,-10 l 46.59,26.9 c 9.57,5.52 17.32,18.96 17.32,30 v 53.81 c 0,11.04 -7.75,15.52 -17.32,10"
         style="fill:#27debf;fill-opacity:1;fill-rule:nonzero;stroke:none"
         id="path272" /><path
         d="m 3027.22,2439.11 104.74,60.26 c 4.78,2.76 8.66,0.51 8.66,-5.01 v -3.34 c 0,-5.52 -3.88,-12.23 -8.66,-14.99 l -104.74,-60.37 c -4.79,-2.76 -8.66,-0.51 -8.66,5.01 v 3.45 c 0,5.53 3.87,12.24 8.66,14.99"
         style="fill:#ebebeb;fill-opacity:1;fill-rule:nonzero;stroke:none"
         id="path274" /><path
         d="m 3027.22,2392.27 104.74,60.26 c 4.78,2.76 8.66,0.51 8.66,-5.01 v -3.34 c 0,-5.52 -3.88,-12.23 -8.66,-14.99 l -104.74,-60.37 c -4.79,-2.77 -8.66,-0.52 -8.66,5 v 3.46 c 0,5.52 3.87,12.24 8.66,14.99"
         style="fill:#ebebeb;fill-opacity:1;fill-rule:nonzero;stroke:none"
         id="path276" /><path
         d="m 3027.22,2345.42 104.74,60.26 c 4.78,2.76 8.66,0.52 8.66,-5.01 v -3.34 c 0,-5.51 -3.88,-12.23 -8.66,-14.99 l -104.74,-60.37 c -4.79,-2.76 -8.66,-0.51 -8.66,5.01 v 3.45 c 0,5.53 3.87,12.24 8.66,14.99"
         style="fill:#ebebeb;fill-opacity:1;fill-rule:nonzero;stroke:none"
         id="path278" /><path
         d="m 3027.22,2298.58 174,100.31 c 4.79,2.75 8.68,0.51 8.68,-5.01 v -3.34 c 0,-5.52 -3.88,-12.23 -8.67,-14.99 l -174.01,-100.42 c -4.79,-2.76 -8.66,-0.51 -8.66,5.01 v 3.45 c 0,5.52 3.87,12.24 8.66,14.99"
         style="fill:#ebebeb;fill-opacity:1;fill-rule:nonzero;stroke:none"
         id="path280" /><path
         d="m 3027.22,2251.73 174,100.31 c 4.79,2.76 8.68,0.51 8.68,-5.01 v -3.34 c 0,-5.52 -3.88,-12.23 -8.67,-14.99 l -174.01,-100.42 c -4.79,-2.76 -8.66,-0.51 -8.66,5.01 v 3.45 c 0,5.53 3.87,12.24 8.66,14.99"
         style="fill:#ebebeb;fill-opacity:1;fill-rule:nonzero;stroke:none"
         id="path282" /><path
         d="m 3371.81,2332.75 v -15.64 c 0,-7.68 5.38,-10.79 12.02,-6.96 l 201.58,116.39 c 6.64,3.84 12.03,13.16 12.03,20.84 v 15.64 c 0,7.66 -5.39,10.77 -12.03,6.94 l -201.58,-116.37 c -6.64,-3.84 -12.02,-13.16 -12.02,-20.84"
         style="fill:#e0e0e0;fill-opacity:1;fill-rule:nonzero;stroke:none"
         id="path284" /><path
         d="m 3376.86,2676.24 209.07,120.71 c 9.57,5.52 17.34,1.04 17.34,-10 v -241.39 c 0,-11.04 -7.77,-24.48 -17.34,-30 l -209.07,-120.72 c -9.56,-5.52 -17.31,-1.04 -17.31,10 v 241.4 c 0,11.04 7.75,24.48 17.31,30"
         style="fill:#fafafa;fill-opacity:1;fill-rule:nonzero;stroke:none"
         id="path286" /><path
         d="m 3376.86,2676.24 209.07,120.71 c 9.57,5.52 17.34,1.04 17.34,-10 v -241.39 c 0,-11.04 -7.77,-24.48 -17.34,-30 l -209.07,-120.72 c -9.56,-5.52 -17.31,-1.04 -17.31,10 v 241.4 c 0,11.04 7.75,24.48 17.31,30 z"
         style="fill:none;stroke:#ebebeb;stroke-width:10;stroke-linecap:butt;stroke-linejoin:miter;stroke-miterlimit:10;stroke-dasharray:none;stroke-opacity:1"
         id="path288" /><path
         d="m 3610.54,2764.35 -46.6,-26.91 c -9.57,-5.52 -17.33,-18.95 -17.33,-30 v -53.81 c 0,-11.04 7.76,-15.52 17.33,-10 l 46.6,26.91 c 9.57,5.52 17.32,18.96 17.32,30 v 53.81 c 0,11.04 -7.75,15.52 -17.32,10"
         style="fill:#27debf;fill-opacity:1;fill-rule:nonzero;stroke:none"
         id="path290" /><path
         d="m 3392.8,2650.17 104.73,60.26 c 4.78,2.76 8.67,0.52 8.67,-5.01 v -3.35 c 0,-5.52 -3.88,-12.22 -8.66,-14.98 l -104.75,-60.38 c -4.78,-2.75 -8.66,-0.5 -8.66,5.02 v 3.45 c 0,5.53 3.88,12.24 8.67,14.99"
         style="fill:#ebebeb;fill-opacity:1;fill-rule:nonzero;stroke:none"
         id="path292" /><path
         d="m 3392.8,2603.32 104.73,60.27 c 4.78,2.75 8.67,0.5 8.67,-5.02 v -3.34 c 0,-5.52 -3.88,-12.23 -8.66,-14.98 l -104.75,-60.37 c -4.78,-2.77 -8.66,-0.52 -8.66,5 v 3.46 c 0,5.52 3.88,12.23 8.67,14.98"
         style="fill:#ebebeb;fill-opacity:1;fill-rule:nonzero;stroke:none"
         id="path294" /><path
         d="m 3392.8,2556.48 104.73,60.26 c 4.78,2.76 8.67,0.51 8.67,-5.01 v -3.34 c 0,-5.52 -3.88,-12.23 -8.66,-14.99 l -104.75,-60.37 c -4.78,-2.76 -8.66,-0.51 -8.66,5.01 v 3.45 c 0,5.52 3.88,12.24 8.67,14.99"
         style="fill:#ebebeb;fill-opacity:1;fill-rule:nonzero;stroke:none"
         id="path296" /><path
         d="m 3392.8,2509.63 174,100.32 c 4.79,2.75 8.67,0.5 8.67,-5.02 v -3.34 c 0,-5.52 -3.88,-12.23 -8.67,-14.98 l -174.01,-100.43 c -4.78,-2.75 -8.66,-0.5 -8.66,5.02 v 3.44 c 0,5.54 3.88,12.24 8.67,14.99"
         style="fill:#ebebeb;fill-opacity:1;fill-rule:nonzero;stroke:none"
         id="path298" /><path
         d="m 3392.8,2462.79 174,100.31 c 4.79,2.76 8.67,0.52 8.67,-5.01 v -3.34 c 0,-5.52 -3.88,-12.23 -8.67,-14.99 l -174.01,-100.42 c -4.78,-2.76 -8.66,-0.51 -8.66,5.01 v 3.45 c 0,5.53 3.88,12.24 8.67,14.99"
         style="fill:#ebebeb;fill-opacity:1;fill-rule:nonzero;stroke:none"
         id="path300" /><path
         d="m 2259.03,1690.02 v -15.64 c 0,-7.68 5.39,-10.79 12.03,-6.95 l 201.58,116.38 c 6.64,3.83 12.02,13.16 12.02,20.82 v 15.66 c 0,7.66 -5.38,10.77 -12.02,6.94 l -201.58,-116.37 c -6.64,-3.84 -12.03,-13.16 -12.03,-20.84"
         style="fill:#e0e0e0;fill-opacity:1;fill-rule:nonzero;stroke:none"
         id="path302" /><path
         d="m 2264.08,2033.51 209.08,120.7 c 9.57,5.52 17.32,1.05 17.32,-10 v -241.37 c 0,-11.05 -7.75,-24.49 -17.32,-30.02 l -209.08,-120.7 c -9.57,-5.52 -17.32,-1.05 -17.32,10 v 241.39 c 0,11.04 7.75,24.47 17.32,30"
         style="fill:#fafafa;fill-opacity:1;fill-rule:nonzero;stroke:none"
         id="path304" /><path
         d="m 2264.08,2033.51 209.08,120.7 c 9.57,5.52 17.32,1.05 17.32,-10 v -241.37 c 0,-11.05 -7.75,-24.49 -17.32,-30.02 l -209.08,-120.7 c -9.57,-5.52 -17.32,-1.05 -17.32,10 v 241.39 c 0,11.04 7.75,24.47 17.32,30 z"
         style="fill:none;stroke:#ebebeb;stroke-width:10;stroke-linecap:butt;stroke-linejoin:miter;stroke-miterlimit:10;stroke-dasharray:none;stroke-opacity:1"
         id="path306" /><path
         d="m 2497.76,2121.62 -46.6,-26.91 c -9.57,-5.52 -17.32,-18.95 -17.32,-30 v -53.8 c 0,-11.05 7.75,-15.53 17.32,-10 l 46.6,26.89 c 9.57,5.52 17.32,18.97 17.32,30 v 53.82 c 0,11.05 -7.75,15.52 -17.32,10"
         style="fill:#27debf;fill-opacity:1;fill-rule:nonzero;stroke:none"
         id="path308" /><path
         d="m 2280.02,2007.44 104.73,60.26 c 4.79,2.76 8.68,0.51 8.68,-5.01 v -3.34 c 0,-5.52 -3.89,-12.23 -8.68,-14.99 l -104.73,-60.37 c -4.79,-2.76 -8.66,-0.51 -8.66,5.01 v 3.45 c 0,5.53 3.87,12.24 8.66,14.99"
         style="fill:#ebebeb;fill-opacity:1;fill-rule:nonzero;stroke:none"
         id="path310" /><path
         d="m 2280.02,1960.59 104.73,60.26 c 4.79,2.76 8.68,0.52 8.68,-5.01 v -3.34 c 0,-5.52 -3.89,-12.23 -8.68,-14.99 l -104.73,-60.37 c -4.79,-2.76 -8.66,-0.51 -8.66,5.01 v 3.45 c 0,5.53 3.87,12.24 8.66,14.99"
         style="fill:#ebebeb;fill-opacity:1;fill-rule:nonzero;stroke:none"
         id="path312" /><path
         d="m 2280.02,1913.75 104.73,60.26 c 4.79,2.75 8.68,0.51 8.68,-5.01 v -3.34 c 0,-5.52 -3.89,-12.23 -8.68,-14.99 l -104.73,-60.37 c -4.79,-2.76 -8.66,-0.52 -8.66,5 v 3.46 c 0,5.52 3.87,12.23 8.66,14.99"
         style="fill:#ebebeb;fill-opacity:1;fill-rule:nonzero;stroke:none"
         id="path314" /><path
         d="m 2280.02,1866.9 174,100.31 c 4.79,2.75 8.68,0.51 8.68,-5.01 v -3.34 c 0,-5.52 -3.89,-12.23 -8.68,-14.98 l -174,-100.43 c -4.79,-2.75 -8.66,-0.5 -8.66,5.01 v 3.45 c 0,5.54 3.87,12.24 8.66,14.99"
         style="fill:#ebebeb;fill-opacity:1;fill-rule:nonzero;stroke:none"
         id="path316" /><path
         d="m 2280.02,1820.06 174,100.31 c 4.79,2.76 8.68,0.51 8.68,-5.01 v -3.34 c 0,-5.52 -3.89,-12.23 -8.68,-14.99 l -174,-100.42 c -4.79,-2.76 -8.66,-0.51 -8.66,5.01 v 3.45 c 0,5.53 3.87,12.24 8.66,14.99"
         style="fill:#ebebeb;fill-opacity:1;fill-rule:nonzero;stroke:none"
         id="path318" /><path
         d="m 2624.61,1901.08 v -15.65 c 0,-7.67 5.38,-10.78 12.02,-6.94 l 201.58,116.38 c 6.64,3.84 12.03,13.16 12.03,20.83 v 15.65 c 0,7.66 -5.39,10.77 -12.03,6.94 l -201.58,-116.38 c -6.64,-3.84 -12.02,-13.16 -12.02,-20.83"
         style="fill:#e0e0e0;fill-opacity:1;fill-rule:nonzero;stroke:none"
         id="path320" /><path
         d="m 2629.67,2244.57 209.07,120.7 c 9.57,5.53 17.33,1.05 17.33,-10 v -241.38 c 0,-11.05 -7.76,-24.48 -17.33,-30 l -209.08,-120.73 c -9.56,-5.52 -17.31,-1.03 -17.31,10 v 241.41 c 0,11.04 7.75,24.48 17.32,30"
         style="fill:#fafafa;fill-opacity:1;fill-rule:nonzero;stroke:none"
         id="path322" /><path
         d="m 2629.67,2244.57 209.07,120.7 c 9.57,5.53 17.33,1.05 17.33,-10 v -241.38 c 0,-11.05 -7.76,-24.48 -17.33,-30 l -209.08,-120.73 c -9.56,-5.52 -17.31,-1.03 -17.31,10 v 241.41 c 0,11.04 7.75,24.48 17.32,30 z"
         style="fill:none;stroke:#ebebeb;stroke-width:10;stroke-linecap:butt;stroke-linejoin:miter;stroke-miterlimit:10;stroke-dasharray:none;stroke-opacity:1"
         id="path324" /><path
         d="m 2863.34,2332.68 -46.6,-26.91 c -9.56,-5.52 -17.32,-18.95 -17.32,-30 v -53.81 c 0,-11.04 7.76,-15.52 17.32,-10 l 46.6,26.91 c 9.57,5.52 17.32,18.95 17.32,30 v 53.81 c 0,11.03 -7.75,15.52 -17.32,10"
         style="fill:#27debf;fill-opacity:1;fill-rule:nonzero;stroke:none"
         id="path326" /><path
         d="m 2645.61,2218.49 104.73,60.26 c 4.77,2.76 8.66,0.52 8.66,-5.01 v -3.34 c 0,-5.52 -3.87,-12.23 -8.66,-14.99 l -104.75,-60.37 c -4.77,-2.76 -8.66,-0.51 -8.66,5.01 v 3.45 c 0,5.53 3.89,12.24 8.68,14.99"
         style="fill:#ebebeb;fill-opacity:1;fill-rule:nonzero;stroke:none"
         id="path328" /><path
         d="m 2645.61,2171.65 104.73,60.26 c 4.77,2.75 8.66,0.51 8.66,-5.01 v -3.34 c 0,-5.52 -3.87,-12.23 -8.66,-14.99 l -104.75,-60.37 c -4.77,-2.76 -8.66,-0.52 -8.66,5.01 v 3.45 c 0,5.52 3.89,12.23 8.68,14.99"
         style="fill:#ebebeb;fill-opacity:1;fill-rule:nonzero;stroke:none"
         id="path330" /><path
         d="m 2645.61,2124.8 104.73,60.27 c 4.77,2.75 8.66,0.5 8.66,-5.02 v -3.34 c 0,-5.51 -3.87,-12.23 -8.66,-14.98 l -104.75,-60.37 c -4.77,-2.77 -8.66,-0.52 -8.66,5 v 3.46 c 0,5.52 3.89,12.23 8.68,14.98"
         style="fill:#ebebeb;fill-opacity:1;fill-rule:nonzero;stroke:none"
         id="path332" /><path
         d="m 2645.61,2077.96 174,100.31 c 4.78,2.76 8.66,0.51 8.66,-5.01 v -3.34 c 0,-5.52 -3.88,-12.23 -8.66,-14.99 l -174.02,-100.42 c -4.77,-2.76 -8.66,-0.51 -8.66,5.01 v 3.45 c 0,5.53 3.89,12.24 8.68,14.99"
         style="fill:#ebebeb;fill-opacity:1;fill-rule:nonzero;stroke:none"
         id="path334" /><path
         d="m 2645.61,2031.12 174,100.31 c 4.78,2.75 8.66,0.51 8.66,-5.02 v -3.33 c 0,-5.52 -3.88,-12.24 -8.66,-14.99 l -174.02,-100.42 c -4.77,-2.76 -8.66,-0.52 -8.66,5 v 3.46 c 0,5.52 3.89,12.23 8.68,14.99"
         style="fill:#ebebeb;fill-opacity:1;fill-rule:nonzero;stroke:none"
         id="path336" /><path
         d="m 1678.06,2980.93 -40.6,23.62 v -187.66 l 40.6,-23.45 z"
         style="fill:#27debf;fill-opacity:1;fill-rule:nonzero;stroke:none"
         id="path338" /><g
         id="g340"><g
           id="g342"
           clip-path="url(#clipPath346)"><g
             id="g348" /><g
             id="g366"><g
               clip-path="url(#clipPath352)"
               opacity="0.100006"
               id="g364"><g
                 id="g362"><g
                   clip-path="url(#clipPath356)"
                   id="g360"><path
                     d="m 1678.06,2980.93 -40.6,23.62 v -187.66 l 40.6,-23.45 z"
                     style="fill:#000000;fill-opacity:1;fill-rule:nonzero;stroke:none"
                     id="path358" /></g></g></g></g></g></g><path
         d="m 4077.3,2205.26 v 0 c -7.35,4.27 -17.53,3.68 -28.78,-2.78 -22.5,-12.92 -40.79,-44.43 -40.84,-70.37 -0.04,-12.97 4.5,-22.09 11.86,-26.36 l 0.01,-0.01 506.18,-320.13 0.02,0.06 c 10.38,-6.96 25.16,-6.59 41.66,2.89 31.43,18.05 57,62.09 57.09,98.36 0.04,19.01 -6.98,32.04 -18.16,37.6 l 0.07,0.12"
         style="fill:#27debf;fill-opacity:1;fill-rule:nonzero;stroke:none"
         id="path368" /><g
         id="g370"><g
           id="g372"
           clip-path="url(#clipPath376)"><g
             id="g378" /><g
             id="g396"><g
               clip-path="url(#clipPath382)"
               opacity="0.149994"
               id="g394"><g
                 id="g392"><g
                   clip-path="url(#clipPath386)"
                   id="g390"><path
                     d="m 4007.68,2132.11 c -0.06,-25.94 18.12,-36.5 40.62,-23.58 22.5,12.92 40.8,44.42 40.84,70.37 0.07,25.94 -18.12,36.5 -40.62,23.58 -22.49,-12.92 -40.79,-44.43 -40.84,-70.37"
                     style="fill:#000000;fill-opacity:1;fill-rule:nonzero;stroke:none"
                     id="path388" /></g></g></g></g></g></g><path
         d="m 3895.68,2272.59 c -13.61,-7.81 -24.66,-26.86 -24.71,-42.55 -0.02,-7.84 2.73,-13.36 7.17,-15.94 l -0.01,-0.01 152.82,-88.68 v 0.01 c 4.45,-2.58 10.6,-2.22 17.41,1.68 13.59,7.81 24.64,26.87 24.68,42.55 0.01,7.85 -2.72,13.36 -7.16,15.94 l -152.82,88.68 c -4.43,2.58 -10.59,2.23 -17.38,-1.68"
         style="fill:#263238;fill-opacity:1;fill-rule:nonzero;stroke:none"
         id="path398" /><g
         id="g400"><g
           id="g402"
           clip-path="url(#clipPath406)"><g
             id="g408" /><g
             id="g426"><g
               clip-path="url(#clipPath412)"
               opacity="0.100006"
               id="g424"><g
                 id="g422"><g
                   clip-path="url(#clipPath416)"
                   id="g420"><path
                     d="m 4067.44,2125.06 520.75,-319.96 c -6.47,-6.54 -13.39,-12.33 -20.8,-16.55 -16.47,-9.45 -31.28,-9.87 -41.66,-2.85 l -0.05,-0.07 -506.12,320.07 c 7.41,-4.29 17.51,-3.62 28.77,2.82 6.89,4.02 13.39,9.76 19.11,16.54"
                     style="fill:#000000;fill-opacity:1;fill-rule:nonzero;stroke:none"
                     id="path418" /></g></g></g></g></g></g><path
         d="m 3912.68,2743.65 c 9.53,-32.45 11.42,-65.95 11.42,-87.93 0,-203.3 -148.76,-460.92 -324.84,-562.57 -28.58,-16.43 -56.42,-28.05 -82.38,-34.23 -9.42,32.45 -11.42,65.95 -11.42,88.04 0,203.29 148.75,460.92 324.84,562.56 28.57,16.44 56.41,27.95 82.38,34.13 m 242.12,-162.99 c -0.09,4.29 -0.3,8.48 -0.62,12.67 -0.2,4.18 -0.52,8.26 -0.93,12.35 -0.22,2.72 -0.54,5.44 -0.84,8.17 -0.74,7.11 -1.78,14.13 -2.93,20.83 -0.53,3.03 -1.06,6.17 -1.68,9.21 -0.52,2.93 -1.16,5.76 -1.78,8.58 -1.79,7.75 -3.66,15.29 -5.86,22.51 -1.15,3.46 -2.21,6.91 -3.36,10.26 -0.2,0.52 -0.41,1.05 -0.52,1.57 -1.26,3.35 -2.4,6.6 -3.66,9.74 -1.46,3.66 -2.93,7.32 -4.61,10.78 -1.15,2.61 -2.3,5.12 -3.66,7.64 -0.73,1.88 -1.67,3.66 -2.72,5.44 -1.05,2.2 -2.2,4.4 -3.45,6.49 -0.32,0.52 -0.54,1.05 -0.84,1.47 -1.05,1.88 -2.2,3.77 -3.36,5.65 -0.72,1.26 -1.56,2.41 -2.3,3.56 -5.54,8.69 -11.51,16.65 -18,23.97 -1.16,1.26 -2.31,2.52 -3.36,3.77 -0.93,1.05 -1.88,1.99 -2.82,2.93 -1.15,1.26 -2.41,2.41 -3.66,3.67 -3.56,3.56 -7.13,6.8 -10.89,9.73 -1.77,1.57 -3.66,3.04 -5.54,4.4 -1.89,1.46 -3.77,2.82 -5.77,4.19 -3.03,2.19 -6.18,4.29 -9.32,6.07 -0.84,0.52 -1.66,1.05 -2.5,1.57 l -0.53,0.42 h -0.11 l -110.29,63.88 h -0.19 l -0.84,0.52 c -27.22,15.5 -58.63,23.56 -93.17,23.56 -48.57,0 -103.43,-15.92 -161.52,-49.41 -199.53,-115.26 -361.37,-395.49 -361.37,-626.01 0,-114.94 40.2,-195.75 105.21,-233.65 l 0.62,-0.32 v -0.1 l 110.39,-63.78 c 0,-0.11 0,-0.11 0.1,-0.11 l 0.63,-0.41 v 0.1 c 0.63,-0.31 1.16,-0.62 1.78,-0.94 2.82,-1.68 5.66,-3.14 8.59,-4.5 3.56,-1.78 7.22,-3.35 10.88,-4.82 3.25,-1.36 6.6,-2.62 9.95,-3.66 1.78,-0.63 3.56,-1.15 5.34,-1.57 1.88,-0.73 3.76,-1.26 5.75,-1.68 1.99,-0.62 3.88,-1.04 5.87,-1.46 1.46,-0.42 2.82,-0.73 4.29,-0.94 2.51,-0.53 5.23,-1.05 7.85,-1.37 0.63,-0.2 1.15,-0.31 1.77,-0.31 3.14,-0.52 6.29,-0.94 9.43,-1.25 53.8,-5.66 116.41,9.52 183.41,48.15 199.63,115.25 361.47,395.6 361.47,626.01 0,5.54 -0.11,10.99 -0.33,16.43"
         style="fill:#27debf;fill-opacity:1;fill-rule:nonzero;stroke:none"
         id="path428" /><g
         id="g430"><g
           id="g432"
           clip-path="url(#clipPath436)"><g
             id="g438" /><g
             id="g456"><g
               clip-path="url(#clipPath442)"
               opacity="0.100006"
               id="g454"><g
                 id="g452"><g
                   clip-path="url(#clipPath446)"
                   id="g450"><path
                     d="m 3533,1915.84 -106.02,61.4 c -65.01,38 -105.21,118.82 -105.21,233.55 0,102.8 32.25,215.44 85.53,318.86 l 110.37,-63.84 c -53.39,-103.43 -85.53,-216.06 -85.53,-318.87 0,-112.42 38.26,-192.15 100.86,-231.1"
                     style="fill:#000000;fill-opacity:1;fill-rule:nonzero;stroke:none"
                     id="path448" /></g></g></g></g></g></g><g
         id="g458"><g
           id="g460"
           clip-path="url(#clipPath464)"><g
             id="g466" /><g
             id="g484"><g
               clip-path="url(#clipPath470)"
               opacity="0.399994"
               id="g482"><g
                 id="g480"><g
                   clip-path="url(#clipPath474)"
                   id="g478"><path
                     d="m 3757.01,2001.66 c -44.8,-25.86 -87.93,-39.47 -124.78,-39.47 -69.19,0 -101.02,47.21 -115.36,96.73 -9.42,32.45 -11.41,65.95 -11.41,88.04 0,203.29 148.76,460.92 324.83,562.57 28.58,16.43 56.43,27.95 82.38,34.12 14.87,3.56 29,5.34 42.4,5.34 114.42,0 126.67,-129.18 126.67,-184.76 0,-203.3 -148.65,-460.92 -324.73,-562.57 m 397.79,579 c -0.09,4.3 -0.31,8.48 -0.62,12.67 -0.21,4.18 -0.53,8.27 -0.94,12.35 -0.21,2.72 -0.53,5.44 -0.84,8.17 -0.73,7.12 -1.78,14.13 -2.93,20.83 -0.53,3.03 -1.05,6.17 -1.68,9.21 -0.52,2.93 -1.15,5.76 -1.78,8.59 -1.77,7.74 -3.66,15.28 -5.86,22.5 -1.15,3.46 -2.2,6.91 -3.35,10.26 -0.21,0.52 -0.41,1.05 -0.52,1.57 -1.26,3.35 -2.4,6.6 -3.66,9.74 -1.47,3.66 -2.93,7.32 -4.61,10.78 -1.16,2.62 -2.31,5.13 -3.67,7.64 -0.73,1.89 -1.67,3.66 -2.72,5.44 -1.05,2.2 -2.2,4.4 -3.45,6.49 -0.32,0.53 -0.53,1.05 -0.84,1.47 -1.04,1.88 -2.19,3.77 -3.35,5.65 -0.73,1.26 -1.57,2.41 -2.3,3.56 -5.55,8.69 -11.52,16.65 -18.01,23.97 -1.15,1.26 -2.3,2.52 -3.35,3.77 -0.94,1.05 -1.88,1.99 -2.82,2.94 -1.15,1.25 -2.41,2.4 -3.66,3.66 -3.57,3.56 -7.12,6.8 -10.89,9.74 -1.78,1.56 -3.66,3.03 -5.55,4.39 -1.88,1.46 -3.77,2.83 -5.76,4.19 -3.04,2.2 -6.17,4.29 -9.32,6.07 -65.63,39.89 -159.67,39.03 -258.67,-23.35 -198.06,-124.78 -360.49,-401.41 -361.47,-626 -0.51,-116.72 41.45,-198.27 108.35,-235.33 2.82,-1.67 5.65,-3.14 8.58,-4.5 3.56,-1.78 7.23,-3.35 10.89,-4.82 3.24,-1.36 6.59,-2.61 9.94,-3.66 1.79,-0.63 3.56,-1.15 5.34,-1.57 1.89,-0.73 3.77,-1.25 5.75,-1.67 2,-0.63 3.88,-1.05 5.87,-1.47 1.47,-0.42 2.82,-0.73 4.29,-0.94 2.51,-0.52 5.23,-1.05 7.85,-1.36 0.64,-0.21 1.15,-0.32 1.79,-0.32 3.13,-0.52 6.28,-0.94 9.41,-1.25 53.81,-5.66 116.42,9.52 183.41,48.15 199.63,115.26 361.48,395.6 361.48,626.01 0,5.55 -0.11,10.99 -0.33,16.43"
                     style="fill:#ffffff;fill-opacity:1;fill-rule:nonzero;stroke:none"
                     id="path476" /></g></g></g></g></g></g><g
         id="g486"><g
           id="g488"
           clip-path="url(#clipPath492)"><g
             id="g494" /><g
             id="g512"><g
               clip-path="url(#clipPath498)"
               opacity="0.100006"
               id="g510"><g
                 id="g508"><g
                   clip-path="url(#clipPath502)"
                   id="g506"><path
                     d="m 4081.71,2564.22 c 0,-203.27 -148.61,-460.93 -324.73,-562.51 -44.8,-25.87 -87.89,-39.5 -124.71,-39.5 -39.13,0 -66.19,15.18 -85.03,37.25 -0.04,0.01 -0.08,0.01 -0.12,0.01 -1.8,2.15 -3.52,4.29 -5.22,6.52 -1.64,2.22 -3.27,4.54 -4.72,6.94 -1.11,1.62 -2.14,3.34 -3.08,5.05 -0.69,1.11 -1.37,2.23 -1.97,3.34 -0.77,1.37 -1.46,2.74 -2.23,4.19 -0.68,1.29 -1.29,2.58 -1.88,3.86 -0.69,1.29 -1.29,2.66 -1.89,4.02 -1.02,2.41 -2.06,4.72 -2.99,7.2 -1.21,3 -2.32,6 -3.34,9.08 -1.03,3.09 -2.06,6.17 -2.91,9.25 25.94,6.17 53.78,17.82 82.4,34.26 176.02,101.6 324.81,359.26 324.81,562.52 0,22.02 -1.88,55.51 -11.39,87.98 14.82,3.51 28.95,5.31 42.4,5.31 5.83,0 11.39,-0.35 16.71,-1.03 1.79,-0.17 3.5,-0.51 5.22,-0.77 0.02,-0.02 0.03,-0.05 0.05,-0.07 93.92,-15.56 104.62,-131.1 104.62,-182.9"
                     style="fill:#000000;fill-opacity:1;fill-rule:nonzero;stroke:none"
                     id="path504" /></g></g></g></g></g></g><g
         id="g514"><g
           id="g516"
           clip-path="url(#clipPath520)"><g
             id="g522" /><g
             id="g540"><g
               clip-path="url(#clipPath526)"
               opacity="0.699997"
               id="g538"><g
                 id="g536"><g
                   clip-path="url(#clipPath530)"
                   id="g534"><path
                     d="m 4018.5,2599.68 c 0,-203.27 -148.61,-460.93 -324.73,-562.52 -44.81,-25.87 -87.89,-39.49 -124.81,-39.49 -7.71,0 -14.98,0.6 -21.84,1.8 -1.79,2.14 -3.51,4.28 -5.23,6.51 -1.62,2.23 -3.25,4.54 -4.71,6.94 -1.11,1.63 -2.14,3.34 -3.07,5.06 -0.7,1.11 -1.38,2.22 -1.98,3.34 -0.77,1.37 -1.45,2.73 -2.22,4.19 -0.7,1.29 -1.29,2.57 -1.89,3.86 -0.68,1.28 -1.29,2.65 -1.88,4.02 -1.03,2.4 -2.06,4.71 -3,7.2 -1.2,3 -2.32,5.99 -3.34,9.08 -1.03,3.08 -2.07,6.17 -2.91,9.25 25.95,6.17 53.79,17.82 82.4,34.26 176.03,101.59 324.82,359.25 324.82,562.52 0,22.02 -1.9,55.51 -11.4,87.97 14.82,3.51 28.95,5.31 42.4,5.31 5.83,0 11.4,-0.34 16.71,-1.02 1.8,-0.17 3.51,-0.52 5.22,-0.78 36.15,-42.57 41.46,-110.92 41.46,-147.5"
                     style="fill:#ffffff;fill-opacity:1;fill-rule:nonzero;stroke:none"
                     id="path532" /></g></g></g></g></g></g></g></g></svg>
